<svg width="2000px" height="1381px"
 viewBox="0.00 0.00 771.88 533.16" xmlns="http://www.w3.org/2000/svg" xmlns:xlink="http://www.w3.org/1999/xlink">
<g id="graph0" class="graph" transform="scale(1.0 1.0) rotate(0) translate(4 529.16)">
<title>ContextMapGraph</title>
<polygon fill="white" stroke="transparent" points="-4,4 -4,-529.16 767.88,-529.16 767.88,4 -4,4"/>
<!-- GestionAlquileres -->
<g id="node1" class="node">
<title>GestionAlquileres</title>
<polygon fill="none" stroke="black" stroke-width="2" points="45.01,-300.51 50.75,-298.36 56.71,-296.31 62.89,-294.36 69.25,-292.52 75.77,-290.81 82.43,-289.22 89.21,-287.77 96.07,-286.46 103,-285.29 109.98,-284.28 116.98,-283.42 123.98,-282.72 130.97,-282.18 137.91,-281.8 144.8,-281.59 151.61,-281.54 158.32,-281.65 164.93,-281.92 171.42,-282.36 177.76,-282.95 183.95,-283.7 189.98,-284.6 195.83,-285.64 201.5,-286.82 206.97,-288.13 212.24,-289.57 217.3,-291.13 222.14,-292.8 226.76,-294.58 231.15,-296.45 235.31,-298.41 239.22,-300.45 242.9,-302.57 246.33,-304.74 249.51,-306.97 252.43,-309.24 255.11,-311.55 257.53,-313.89 259.69,-316.25 261.58,-318.61 263.22,-320.98 264.58,-323.35 265.68,-325.71 266.51,-328.05 267.07,-330.36 267.35,-332.65 267.35,-334.89 267.08,-337.1 266.52,-339.26 265.68,-341.38 264.55,-343.43 263.14,-345.43 261.43,-347.37 259.44,-349.25 257.16,-351.06 254.58,-352.8 251.71,-354.48 248.56,-356.08 245.11,-357.61 241.38,-359.07 237.36,-360.45 233.07,-361.76 228.5,-363 223.66,-364.15 218.56,-365.24 213.21,-366.24 207.61,-367.17 201.78,-368.03 195.72,-368.8 189.46,-369.5 183,-370.12 176.36,-370.66 169.57,-371.11 162.62,-371.49 155.55,-371.79 148.38,-372 141.12,-372.13 133.79,-372.17 126.43,-372.13 119.05,-371.99 111.69,-371.77 104.35,-371.45 97.08,-371.04 89.89,-370.54 82.81,-369.94 75.87,-369.24 69.09,-368.44 62.5,-367.55 56.13,-366.55 49.99,-365.46 44.12,-364.26 38.53,-362.96 33.25,-361.56 28.3,-360.06 23.7,-358.46 19.46,-356.77 15.61,-354.99 12.16,-353.11 9.12,-351.14 6.51,-349.09 4.33,-346.96 2.6,-344.76 1.32,-342.48 0.49,-340.14 0.12,-337.75 0.2,-335.3 0.74,-332.81 1.73,-330.28 3.17,-327.73 5.04,-325.16 7.34,-322.58 10.06,-320 13.19,-317.43 16.7,-314.88 20.59,-312.35 24.84,-309.87 29.43,-307.43 34.33,-305.05 39.53,-302.74 45.01,-300.51"/>
<text text-anchor="middle" x="141.88" y="-326.57" font-family="sans-serif" font-size="16.00">GestionAlquileres</text>
</g>
<!-- GestionPagos -->
<g id="node2" class="node">
<title>GestionPagos</title>
<polygon fill="none" stroke="black" stroke-width="2" points="355.6,-224.31 349.45,-222.89 343.49,-221.38 337.75,-219.77 332.25,-218.08 327,-216.32 322.05,-214.48 317.39,-212.58 313.06,-210.62 309.07,-208.61 305.43,-206.55 302.16,-204.45 299.28,-202.32 296.78,-200.16 294.68,-197.98 292.99,-195.79 291.7,-193.59 290.82,-191.38 290.35,-189.18 290.29,-186.98 290.63,-184.8 291.37,-182.63 292.49,-180.48 293.99,-178.37 295.86,-176.28 298.09,-174.23 300.65,-172.22 303.54,-170.26 306.73,-168.34 310.22,-166.47 313.98,-164.66 317.98,-162.9 322.23,-161.21 326.68,-159.58 331.32,-158.02 336.14,-156.52 341.11,-155.1 346.21,-153.76 351.42,-152.49 356.72,-151.3 362.09,-150.19 367.52,-149.17 372.98,-148.24 378.47,-147.4 383.95,-146.65 389.43,-145.99 394.88,-145.43 400.29,-144.96 405.65,-144.59 410.94,-144.33 416.17,-144.17 421.31,-144.11 426.37,-144.16 431.33,-144.31 436.19,-144.57 440.93,-144.94 445.57,-145.42 450.09,-146 454.49,-146.7 458.76,-147.5 462.91,-148.41 466.92,-149.43 470.81,-150.56 474.56,-151.79 478.18,-153.12 481.66,-154.56 485,-156.09 488.19,-157.72 491.24,-159.43 494.15,-161.24 496.9,-163.13 499.49,-165.1 501.92,-167.15 504.19,-169.27 506.29,-171.44 508.21,-173.68 509.95,-175.97 511.51,-178.3 512.86,-180.67 514.01,-183.07 514.95,-185.5 515.68,-187.94 516.17,-190.39 516.43,-192.84 516.45,-195.28 516.22,-197.7 515.73,-200.1 514.97,-202.47 513.94,-204.8 512.64,-207.07 511.05,-209.29 509.17,-211.45 507,-213.53 504.54,-215.54 501.78,-217.46 498.73,-219.28 495.38,-221.01 491.74,-222.63 487.81,-224.14 483.6,-225.53 479.11,-226.8 474.36,-227.95 469.35,-228.97 464.09,-229.85 458.61,-230.6 452.9,-231.22 447,-231.7 440.92,-232.04 434.67,-232.24 428.29,-232.3 421.78,-232.22 415.18,-232 408.5,-231.65 401.78,-231.16 395.03,-230.55 388.29,-229.81 381.59,-228.94 374.94,-227.95 368.37,-226.85 361.92,-225.63 355.6,-224.31"/>
<text text-anchor="middle" x="410.88" y="-182.87" font-family="sans-serif" font-size="16.00">GestionPagos</text>
</g>
<!-- GestionAlquileres&#45;&gt;GestionPagos -->
<g id="edge1" class="edge">
<title>GestionAlquileres&#45;&gt;GestionPagos</title>
<path fill="none" stroke="black" stroke-width="2" d="M140.35,-281.47C142.32,-269.97 146.57,-258.66 154.88,-250.48 174.26,-231.41 249.44,-238.79 275.88,-232.48 293.42,-228.3 311.93,-222.86 329.44,-217.22"/>
<text text-anchor="middle" x="230.38" y="-253.88" font-family="sans-serif" font-size="12.00"> &#160;&#160;&#160;&#160;&#160;&#160;&#160;&#160;&#160;&#160;&#160;&#160;&#160;&#160;&#160;&#160;&#160;&#160;&#160;&#160;&#160;&#160;&#160;&#160;&#160;&#160;&#160;&#160;&#160;&#160;&#160;&#160;&#160;&#160;&#160;&#160;&#160;&#160;&#160;</text>
<polygon fill="white" stroke="transparent" points="306.44,-207.22 306.44,-226.22 322.44,-226.22 322.44,-207.22 306.44,-207.22"/>
<polyline fill="none" stroke="black" points="322.44,-207.22 322.44,-226.22 "/>
<text text-anchor="start" x="309.44" y="-213.62" font-family="sans-serif" font-size="12.00">D</text>
<polygon fill="white" stroke="transparent" points="322.44,-207.22 322.44,-226.22 352.44,-226.22 352.44,-207.22 322.44,-207.22"/>
<polygon fill="none" stroke="black" points="322.44,-207.22 322.44,-226.22 352.44,-226.22 352.44,-207.22 322.44,-207.22"/>
<text text-anchor="start" x="325.44" y="-213.62" font-family="sans-serif" font-size="12.00">ACL</text>
<polygon fill="white" stroke="transparent" points="133.35,-272.47 133.35,-289.47 147.35,-289.47 147.35,-272.47 133.35,-272.47"/>
<text text-anchor="start" x="135.35" y="-277.87" font-family="sans-serif" font-size="12.00">U</text>
</g>
<!-- Seguridad -->
<g id="node3" class="node">
<title>Seguridad</title>
<polygon fill="none" stroke="black" stroke-width="2" points="458.41,-8.58 463.49,-10.05 468.41,-11.61 473.15,-13.26 477.69,-14.99 482,-16.8 486.08,-18.68 489.89,-20.62 493.44,-22.61 496.7,-24.66 499.66,-26.75 502.32,-28.87 504.65,-31.03 506.66,-33.21 508.33,-35.41 509.67,-37.62 510.66,-39.84 511.32,-42.05 511.63,-44.27 511.6,-46.47 511.24,-48.66 510.54,-50.82 509.53,-52.96 508.2,-55.08 506.56,-57.15 504.63,-59.19 502.42,-61.19 499.93,-63.14 497.2,-65.04 494.22,-66.89 491.02,-68.68 487.6,-70.41 484,-72.08 480.22,-73.68 476.29,-75.21 472.21,-76.68 468.01,-78.06 463.7,-79.38 459.31,-80.61 454.84,-81.76 450.31,-82.83 445.74,-83.82 441.14,-84.72 436.54,-85.52 431.93,-86.24 427.33,-86.86 422.76,-87.38 418.23,-87.81 413.74,-88.14 409.3,-88.37 404.93,-88.5 400.63,-88.52 396.41,-88.44 392.28,-88.25 388.23,-87.95 384.28,-87.55 380.43,-87.04 376.67,-86.42 373.03,-85.69 369.49,-84.85 366.06,-83.91 362.74,-82.86 359.53,-81.7 356.44,-80.44 353.47,-79.08 350.62,-77.62 347.89,-76.06 345.28,-74.41 342.79,-72.66 340.43,-70.83 338.2,-68.91 336.11,-66.92 334.15,-64.85 332.33,-62.72 330.66,-60.52 329.13,-58.26 327.76,-55.96 326.55,-53.61 325.51,-51.22 324.63,-48.8 323.93,-46.37 323.42,-43.91 323.09,-41.46 322.96,-39 323.04,-36.55 323.32,-34.13 323.81,-31.72 324.53,-29.36 325.47,-27.03 326.65,-24.76 328.05,-22.54 329.7,-20.4 331.58,-18.32 333.71,-16.33 336.09,-14.43 338.7,-12.62 341.56,-10.91 344.66,-9.31 348,-7.83 351.56,-6.46 355.36,-5.22 359.37,-4.1 363.59,-3.12 368.01,-2.27 372.62,-1.55 377.4,-0.98 382.35,-0.54 387.44,-0.24 392.66,-0.09 398,-0.07 403.43,-0.2 408.94,-0.46 414.5,-0.86 420.09,-1.39 425.7,-2.06 431.31,-2.85 436.88,-3.77 442.39,-4.8 447.84,-5.95 453.18,-7.22 458.41,-8.58"/>
<text text-anchor="middle" x="410.88" y="-42.13" font-family="sans-serif" font-size="16.00">Seguridad</text>
</g>
<!-- GestionAlquileres&#45;&gt;Seguridad -->
<g id="edge2" class="edge">
<title>GestionAlquileres&#45;&gt;Seguridad</title>
<path fill="none" stroke="black" stroke-width="2" d="M123.51,-282.55C110.64,-241.35 100.47,-181.71 129.88,-140.86 173.92,-79.71 259.58,-57.78 324.8,-50.22"/>
<text text-anchor="middle" x="205.38" y="-183.57" font-family="sans-serif" font-size="12.00"> &#160;&#160;&#160;&#160;&#160;&#160;&#160;&#160;&#160;&#160;&#160;&#160;&#160;&#160;&#160;&#160;&#160;&#160;&#160;&#160;&#160;&#160;&#160;&#160;&#160;&#160;&#160;&#160;&#160;&#160;&#160;&#160;&#160;&#160;&#160;&#160;&#160;&#160;&#160;</text>
<polygon fill="white" stroke="transparent" points="301.8,-40.22 301.8,-59.22 317.8,-59.22 317.8,-40.22 301.8,-40.22"/>
<polyline fill="none" stroke="black" points="317.8,-40.22 317.8,-59.22 "/>
<text text-anchor="start" x="304.8" y="-46.62" font-family="sans-serif" font-size="12.00">D</text>
<polygon fill="white" stroke="transparent" points="317.8,-40.22 317.8,-59.22 347.8,-59.22 347.8,-40.22 317.8,-40.22"/>
<polygon fill="none" stroke="black" points="317.8,-40.22 317.8,-59.22 347.8,-59.22 347.8,-40.22 317.8,-40.22"/>
<text text-anchor="start" x="320.8" y="-46.62" font-family="sans-serif" font-size="12.00">ACL</text>
<polygon fill="white" stroke="transparent" points="116.51,-273.55 116.51,-290.55 130.51,-290.55 130.51,-273.55 116.51,-273.55"/>
<text text-anchor="start" x="118.51" y="-278.95" font-family="sans-serif" font-size="12.00">U</text>
</g>
<!-- GestionPagos&#45;&gt;Seguridad -->
<g id="edge3" class="edge">
<title>GestionPagos&#45;&gt;Seguridad</title>
<path fill="none" stroke="black" stroke-width="2" d="M410.88,-144.04C410.88,-126.48 410.88,-106.08 410.88,-88.53"/>
<text text-anchor="middle" x="486.38" y="-113.26" font-family="sans-serif" font-size="12.00"> &#160;&#160;&#160;&#160;&#160;&#160;&#160;&#160;&#160;&#160;&#160;&#160;&#160;&#160;&#160;&#160;&#160;&#160;&#160;&#160;&#160;&#160;&#160;&#160;&#160;&#160;&#160;&#160;&#160;&#160;&#160;&#160;&#160;&#160;&#160;&#160;&#160;&#160;&#160;</text>
<polygon fill="white" stroke="transparent" points="387.88,-78.53 387.88,-97.53 403.88,-97.53 403.88,-78.53 387.88,-78.53"/>
<polyline fill="none" stroke="black" points="403.88,-78.53 403.88,-97.53 "/>
<text text-anchor="start" x="390.88" y="-84.93" font-family="sans-serif" font-size="12.00">D</text>
<polygon fill="white" stroke="transparent" points="403.88,-78.53 403.88,-97.53 433.88,-97.53 433.88,-78.53 403.88,-78.53"/>
<polygon fill="none" stroke="black" points="403.88,-78.53 403.88,-97.53 433.88,-97.53 433.88,-78.53 403.88,-78.53"/>
<text text-anchor="start" x="406.88" y="-84.93" font-family="sans-serif" font-size="12.00">ACL</text>
<polygon fill="white" stroke="transparent" points="403.88,-135.04 403.88,-152.04 417.88,-152.04 417.88,-135.04 403.88,-135.04"/>
<text text-anchor="start" x="405.88" y="-140.44" font-family="sans-serif" font-size="12.00">U</text>
</g>
<!-- GestionClientes -->
<g id="node4" class="node">
<title>GestionClientes</title>
<polygon fill="none" stroke="black" stroke-width="2" points="727.86,-313.7 730.98,-316.33 733.77,-318.99 736.22,-321.67 738.31,-324.36 740.05,-327.05 741.41,-329.73 742.39,-332.38 742.99,-335 743.2,-337.58 743.01,-340.11 742.43,-342.59 741.45,-344.99 740.09,-347.33 738.33,-349.58 736.19,-351.75 733.67,-353.82 730.77,-355.8 727.52,-357.68 723.92,-359.45 719.98,-361.12 715.71,-362.67 711.14,-364.11 706.28,-365.44 701.14,-366.66 695.74,-367.76 690.11,-368.74 684.26,-369.61 678.21,-370.37 672,-371.01 665.63,-371.55 659.13,-371.98 652.53,-372.3 645.84,-372.53 639.1,-372.65 632.31,-372.67 625.52,-372.6 618.73,-372.43 611.97,-372.18 605.27,-371.84 598.64,-371.42 592.1,-370.92 585.68,-370.33 579.38,-369.68 573.24,-368.94 567.26,-368.14 561.47,-367.26 555.87,-366.32 550.48,-365.31 545.31,-364.23 540.39,-363.09 535.7,-361.89 531.27,-360.62 527.11,-359.29 523.21,-357.9 519.59,-356.45 516.25,-354.94 513.2,-353.37 510.44,-351.75 507.96,-350.06 505.79,-348.33 503.9,-346.53 502.31,-344.69 501.02,-342.79 500.01,-340.84 499.3,-338.85 498.87,-336.81 498.73,-334.73 498.88,-332.61 499.3,-330.46 500,-328.28 500.97,-326.07 502.2,-323.84 503.7,-321.6 505.46,-319.35 507.47,-317.09 509.73,-314.84 512.23,-312.59 514.97,-310.36 517.95,-308.16 521.15,-305.99 524.57,-303.87 528.2,-301.79 532.05,-299.76 536.1,-297.81 540.34,-295.92 544.78,-294.12 549.39,-292.41 554.18,-290.8 559.14,-289.3 564.25,-287.91 569.52,-286.64 574.92,-285.5 580.46,-284.49 586.11,-283.63 591.87,-282.91 597.73,-282.35 603.68,-281.94 609.69,-281.68 615.77,-281.59 621.89,-281.67 628.03,-281.91 634.2,-282.31 640.36,-282.88 646.5,-283.61 652.61,-284.51 658.67,-285.56 664.66,-286.77 670.56,-288.13 676.35,-289.63 682.02,-291.28 687.55,-293.06 692.92,-294.96 698.1,-296.99 703.09,-299.12 707.86,-301.35 712.4,-303.68 716.68,-306.09 720.7,-308.57 724.43,-311.11 727.86,-313.7"/>
<text text-anchor="middle" x="615.88" y="-326.57" font-family="sans-serif" font-size="16.00">GestionClientes</text>
</g>
<!-- GestionClientes&#45;&gt;GestionPagos -->
<g id="edge4" class="edge">
<title>GestionClientes&#45;&gt;GestionPagos</title>
<path fill="none" stroke="black" stroke-width="2" d="M531.2,-300.17C483.41,-283.54 432.82,-265.58 430.88,-263.48 422.96,-254.86 418.1,-243.48 415.15,-232.16"/>
<text text-anchor="middle" x="506.38" y="-253.88" font-family="sans-serif" font-size="12.00"> &#160;&#160;&#160;&#160;&#160;&#160;&#160;&#160;&#160;&#160;&#160;&#160;&#160;&#160;&#160;&#160;&#160;&#160;&#160;&#160;&#160;&#160;&#160;&#160;&#160;&#160;&#160;&#160;&#160;&#160;&#160;&#160;&#160;&#160;&#160;&#160;&#160;&#160;&#160;</text>
<polygon fill="white" stroke="transparent" points="392.15,-222.16 392.15,-241.16 408.15,-241.16 408.15,-222.16 392.15,-222.16"/>
<polyline fill="none" stroke="black" points="408.15,-222.16 408.15,-241.16 "/>
<text text-anchor="start" x="395.15" y="-228.56" font-family="sans-serif" font-size="12.00">D</text>
<polygon fill="white" stroke="transparent" points="408.15,-222.16 408.15,-241.16 438.15,-241.16 438.15,-222.16 408.15,-222.16"/>
<polygon fill="none" stroke="black" points="408.15,-222.16 408.15,-241.16 438.15,-241.16 438.15,-222.16 408.15,-222.16"/>
<text text-anchor="start" x="411.15" y="-228.56" font-family="sans-serif" font-size="12.00">ACL</text>
<polygon fill="white" stroke="transparent" points="524.2,-291.17 524.2,-308.17 538.2,-308.17 538.2,-291.17 524.2,-291.17"/>
<text text-anchor="start" x="526.2" y="-296.57" font-family="sans-serif" font-size="12.00">U</text>
</g>
<!-- GestionClientes&#45;&gt;Seguridad -->
<g id="edge5" class="edge">
<title>GestionClientes&#45;&gt;Seguridad</title>
<path fill="none" stroke="black" stroke-width="2" d="M617.19,-281.38C615.97,-232.73 606.77,-157.95 565.88,-109.86 548.11,-88.95 522.33,-74.9 496.89,-65.5"/>
<text text-anchor="middle" x="688.38" y="-183.57" font-family="sans-serif" font-size="12.00"> &#160;&#160;&#160;&#160;&#160;&#160;&#160;&#160;&#160;&#160;&#160;&#160;&#160;&#160;&#160;&#160;&#160;&#160;&#160;&#160;&#160;&#160;&#160;&#160;&#160;&#160;&#160;&#160;&#160;&#160;&#160;&#160;&#160;&#160;&#160;&#160;&#160;&#160;&#160;</text>
<polygon fill="white" stroke="transparent" points="473.89,-55.5 473.89,-74.5 489.89,-74.5 489.89,-55.5 473.89,-55.5"/>
<polyline fill="none" stroke="black" points="489.89,-55.5 489.89,-74.5 "/>
<text text-anchor="start" x="476.89" y="-61.9" font-family="sans-serif" font-size="12.00">D</text>
<polygon fill="white" stroke="transparent" points="489.89,-55.5 489.89,-74.5 519.89,-74.5 519.89,-55.5 489.89,-55.5"/>
<polygon fill="none" stroke="black" points="489.89,-55.5 489.89,-74.5 519.89,-74.5 519.89,-55.5 489.89,-55.5"/>
<text text-anchor="start" x="492.89" y="-61.9" font-family="sans-serif" font-size="12.00">ACL</text>
<polygon fill="white" stroke="transparent" points="610.19,-272.38 610.19,-289.38 624.19,-289.38 624.19,-272.38 610.19,-272.38"/>
<text text-anchor="start" x="612.19" y="-277.78" font-family="sans-serif" font-size="12.00">U</text>
</g>
<!-- GestionVehiculos -->
<g id="node5" class="node">
<title>GestionVehiculos</title>
<polygon fill="none" stroke="black" stroke-width="2" points="447.55,-468.82 449.2,-471.63 450.48,-474.45 451.4,-477.26 451.94,-480.05 452.1,-482.82 451.88,-485.54 451.28,-488.21 450.29,-490.83 448.92,-493.37 447.17,-495.83 445.04,-498.21 442.54,-500.5 439.66,-502.68 436.43,-504.75 432.85,-506.72 428.93,-508.56 424.68,-510.28 420.12,-511.87 415.25,-513.34 410.09,-514.67 404.66,-515.87 398.98,-516.94 393.06,-517.87 386.93,-518.67 380.59,-519.34 374.08,-519.88 367.41,-520.3 360.61,-520.58 353.69,-520.75 346.69,-520.79 339.61,-520.72 332.49,-520.54 325.34,-520.25 318.2,-519.86 311.07,-519.38 303.99,-518.79 296.98,-518.12 290.05,-517.37 283.23,-516.53 276.53,-515.61 269.99,-514.63 263.61,-513.57 257.42,-512.45 251.43,-511.27 245.66,-510.04 240.12,-508.74 234.83,-507.4 229.8,-506 225.05,-504.56 220.59,-503.07 216.42,-501.53 212.55,-499.96 209,-498.34 205.77,-496.69 202.87,-495 200.3,-493.27 198.07,-491.5 196.17,-489.7 194.61,-487.87 193.4,-486 192.53,-484.1 192,-482.17 191.81,-480.22 191.95,-478.23 192.43,-476.23 193.24,-474.2 194.37,-472.15 195.83,-470.09 197.6,-468.01 199.67,-465.93 202.05,-463.84 204.72,-461.75 207.67,-459.67 210.9,-457.59 214.4,-455.53 218.15,-453.5 222.16,-451.49 226.4,-449.51 230.87,-447.58 235.56,-445.7 240.46,-443.87 245.55,-442.11 250.83,-440.42 256.28,-438.8 261.89,-437.28 267.65,-435.85 273.54,-434.52 279.55,-433.31 285.68,-432.21 291.89,-431.23 298.19,-430.38 304.56,-429.68 310.98,-429.11 317.44,-428.69 323.93,-428.42 330.42,-428.31 336.9,-428.35 343.36,-428.56 349.79,-428.93 356.16,-429.46 362.46,-430.16 368.67,-431.02 374.78,-432.04 380.77,-433.22 386.63,-434.56 392.33,-436.05 397.86,-437.68 403.21,-439.46 408.36,-441.37 413.29,-443.41 417.99,-445.57 422.45,-447.84 426.64,-450.21 430.55,-452.67 434.18,-455.22 437.51,-457.84 440.52,-460.52 443.2,-463.25 445.55,-466.02 447.55,-468.82"/>
<text text-anchor="middle" x="319.88" y="-472.91" font-family="sans-serif" font-size="16.00">GestionVehiculos</text>
</g>
<!-- GestionVehiculos&#45;&gt;GestionAlquileres -->
<g id="edge8" class="edge">
<title>GestionVehiculos&#45;&gt;GestionAlquileres</title>
<path fill="none" stroke="black" stroke-width="2" d="M268.36,-435.41C257.91,-427.14 247.01,-418.46 236.88,-410.26 220.72,-397.18 203.16,-382.68 187.59,-369.72"/>
<text text-anchor="middle" x="271.38" y="-400.66" font-family="sans-serif" font-size="12.00">Partnership</text>
</g>
<!-- GestionVehiculos&#45;&gt;GestionPagos -->
<g id="edge7" class="edge">
<title>GestionVehiculos&#45;&gt;GestionPagos</title>
<path fill="none" stroke="black" stroke-width="2" d="M313.62,-428.76C310.16,-388.24 309.8,-328.93 328.88,-281.48 337.03,-261.21 351.52,-242.33 366.07,-226.9"/>
<text text-anchor="middle" x="404.38" y="-327.27" font-family="sans-serif" font-size="12.00"> &#160;&#160;&#160;&#160;&#160;&#160;&#160;&#160;&#160;&#160;&#160;&#160;&#160;&#160;&#160;&#160;&#160;&#160;&#160;&#160;&#160;&#160;&#160;&#160;&#160;&#160;&#160;&#160;&#160;&#160;&#160;&#160;&#160;&#160;&#160;&#160;&#160;&#160;&#160;</text>
<polygon fill="white" stroke="transparent" points="343.07,-216.9 343.07,-235.9 359.07,-235.9 359.07,-216.9 343.07,-216.9"/>
<polyline fill="none" stroke="black" points="359.07,-216.9 359.07,-235.9 "/>
<text text-anchor="start" x="346.07" y="-223.3" font-family="sans-serif" font-size="12.00">D</text>
<polygon fill="white" stroke="transparent" points="359.07,-216.9 359.07,-235.9 389.07,-235.9 389.07,-216.9 359.07,-216.9"/>
<polygon fill="none" stroke="black" points="359.07,-216.9 359.07,-235.9 389.07,-235.9 389.07,-216.9 359.07,-216.9"/>
<text text-anchor="start" x="362.07" y="-223.3" font-family="sans-serif" font-size="12.00">ACL</text>
<polygon fill="white" stroke="transparent" points="306.62,-419.76 306.62,-436.76 320.62,-436.76 320.62,-419.76 306.62,-419.76"/>
<text text-anchor="start" x="308.62" y="-425.16" font-family="sans-serif" font-size="12.00">U</text>
</g>
<!-- GestionVehiculos&#45;&gt;GestionClientes -->
<g id="edge6" class="edge">
<title>GestionVehiculos&#45;&gt;GestionClientes</title>
<path fill="none" stroke="black" stroke-width="2" d="M398.04,-437.6C444.46,-414.96 502.77,-386.53 547.38,-364.78"/>
<text text-anchor="middle" x="551.38" y="-400.66" font-family="sans-serif" font-size="12.00"> &#160;&#160;&#160;&#160;&#160;&#160;&#160;&#160;&#160;&#160;&#160;&#160;&#160;&#160;&#160;&#160;&#160;&#160;&#160;&#160;&#160;&#160;&#160;&#160;&#160;&#160;&#160;&#160;&#160;&#160;&#160;&#160;&#160;&#160;&#160;&#160;&#160;&#160;&#160;</text>
<polygon fill="white" stroke="transparent" points="528.38,-354.78 528.38,-373.78 544.38,-373.78 544.38,-354.78 528.38,-354.78"/>
<polyline fill="none" stroke="black" points="544.38,-354.78 544.38,-373.78 "/>
<text text-anchor="start" x="531.38" y="-361.18" font-family="sans-serif" font-size="12.00">D</text>
<polygon fill="white" stroke="transparent" points="544.38,-354.78 544.38,-373.78 566.38,-373.78 566.38,-354.78 544.38,-354.78"/>
<polygon fill="none" stroke="black" points="544.38,-354.78 544.38,-373.78 566.38,-373.78 566.38,-354.78 544.38,-354.78"/>
<text text-anchor="start" x="547.38" y="-361.18" font-family="sans-serif" font-size="12.00">CF</text>
<polygon fill="white" stroke="transparent" points="391.04,-428.6 391.04,-445.6 405.04,-445.6 405.04,-428.6 391.04,-428.6"/>
<text text-anchor="start" x="393.04" y="-434" font-family="sans-serif" font-size="12.00">U</text>
</g>
</g>
</svg>
