<svg width="2000px" height="818px"
 viewBox="0.00 0.00 949.06 387.59" xmlns="http://www.w3.org/2000/svg" xmlns:xlink="http://www.w3.org/1999/xlink">
<g id="graph0" class="graph" transform="scale(1.0 1.0) rotate(0) translate(4 383.59)">
<title>ContextMapGraph</title>
<polygon fill="white" stroke="transparent" points="-4,4 -4,-383.59 945.06,-383.59 945.06,4 -4,4"/>
<!-- GestionAlquileres -->
<g id="node1" class="node">
<title>GestionAlquileres</title>
<polygon fill="none" stroke="black" stroke-width="2" points="437.25,-198.75 434.91,-201.51 432.23,-204.22 429.23,-206.87 425.92,-209.45 422.3,-211.94 418.39,-214.34 414.2,-216.63 409.75,-218.81 405.04,-220.87 400.1,-222.8 394.93,-224.59 389.56,-226.25 383.99,-227.75 378.24,-229.11 372.33,-230.31 366.27,-231.35 360.09,-232.23 353.79,-232.95 347.39,-233.51 340.91,-233.91 334.37,-234.15 327.77,-234.23 321.15,-234.15 314.51,-233.92 307.87,-233.54 301.25,-233.02 294.66,-232.37 288.11,-231.58 281.64,-230.66 275.24,-229.62 268.93,-228.47 262.74,-227.22 256.67,-225.86 250.74,-224.41 244.96,-222.88 239.35,-221.27 233.92,-219.59 228.69,-217.85 223.66,-216.06 218.86,-214.21 214.28,-212.33 209.95,-210.4 205.88,-208.45 202.07,-206.48 198.54,-204.48 195.29,-202.48 192.34,-200.46 189.7,-198.44 187.37,-196.42 185.36,-194.41 183.68,-192.4 182.33,-190.4 181.32,-188.41 180.66,-186.44 180.34,-184.48 180.37,-182.54 180.75,-180.62 181.49,-178.72 182.59,-176.85 184.03,-174.99 185.83,-173.16 187.98,-171.36 190.47,-169.59 193.3,-167.84 196.47,-166.12 199.96,-164.44 203.78,-162.78 207.9,-161.17 212.33,-159.59 217.04,-158.04 222.04,-156.55 227.3,-155.09 232.81,-153.68 238.56,-152.33 244.53,-151.03 250.7,-149.79 257.06,-148.61 263.58,-147.5 270.26,-146.46 277.07,-145.5 283.98,-144.63 290.99,-143.84 298.06,-143.14 305.19,-142.54 312.34,-142.04 319.49,-141.65 326.63,-141.37 333.72,-141.21 340.76,-141.17 347.71,-141.26 354.56,-141.47 361.28,-141.82 367.86,-142.3 374.28,-142.92 380.5,-143.67 386.53,-144.57 392.33,-145.61 397.89,-146.79 403.2,-148.11 408.23,-149.56 412.97,-151.15 417.42,-152.88 421.55,-154.73 425.36,-156.7 428.84,-158.8 431.96,-161 434.74,-163.31 437.16,-165.72 439.21,-168.22 440.89,-170.8 442.2,-173.45 443.13,-176.16 443.69,-178.92 443.88,-181.72 443.68,-184.55 443.12,-187.4 442.19,-190.26 440.9,-193.11 439.25,-195.94 437.25,-198.75"/>
<text text-anchor="middle" x="311.06" y="-182.35" font-family="sans-serif" font-size="16.00">GestionAlquileres</text>
</g>
<!-- GestionPagos -->
<g id="node2" class="node">
<title>GestionPagos</title>
<polygon fill="none" stroke="black" stroke-width="2" points="517.56,-3.13 524.28,-4.05 530.85,-5.09 537.25,-6.23 543.46,-7.47 549.45,-8.81 555.19,-10.23 560.67,-11.75 565.86,-13.35 570.73,-15.03 575.28,-16.78 579.48,-18.6 583.33,-20.48 586.81,-22.41 589.9,-24.4 592.61,-26.43 594.91,-28.51 596.82,-30.62 598.33,-32.76 599.43,-34.92 600.13,-37.1 600.43,-39.3 600.34,-41.5 599.87,-43.71 599.02,-45.91 597.8,-48.1 596.23,-50.29 594.33,-52.45 592.09,-54.59 589.55,-56.7 586.72,-58.78 583.61,-60.83 580.25,-62.83 576.64,-64.78 572.81,-66.68 568.79,-68.53 564.58,-70.32 560.2,-72.04 555.68,-73.69 551.04,-75.28 546.28,-76.78 541.43,-78.21 536.5,-79.55 531.51,-80.81 526.48,-81.98 521.41,-83.05 516.32,-84.03 511.22,-84.91 506.13,-85.68 501.05,-86.35 495.99,-86.92 490.96,-87.37 485.97,-87.72 481.02,-87.95 476.13,-88.07 471.28,-88.07 466.5,-87.96 461.78,-87.73 457.13,-87.39 452.55,-86.92 448.05,-86.34 443.61,-85.65 439.26,-84.84 434.99,-83.91 430.81,-82.88 426.71,-81.73 422.7,-80.48 418.79,-79.12 414.98,-77.66 411.27,-76.1 407.67,-74.45 404.19,-72.7 400.83,-70.87 397.6,-68.96 394.5,-66.97 391.55,-64.91 388.76,-62.79 386.13,-60.61 383.67,-58.37 381.41,-56.09 379.33,-53.77 377.47,-51.42 375.82,-49.04 374.4,-46.64 373.23,-44.23 372.31,-41.82 371.66,-39.42 371.28,-37.02 371.19,-34.65 371.39,-32.3 371.9,-29.98 372.73,-27.71 373.87,-25.48 375.34,-23.32 377.14,-21.21 379.28,-19.17 381.76,-17.21 384.57,-15.33 387.71,-13.54 391.19,-11.83 395,-10.23 399.13,-8.73 403.57,-7.34 408.31,-6.06 413.35,-4.89 418.66,-3.84 424.24,-2.91 430.06,-2.11 436.1,-1.43 442.35,-0.88 448.78,-0.45 455.37,-0.15 462.1,0.02 468.94,0.06 475.86,-0.03 482.83,-0.24 489.83,-0.57 496.84,-1.03 503.81,-1.61 510.73,-2.31 517.56,-3.13"/>
<text text-anchor="middle" x="481.06" y="-40.76" font-family="sans-serif" font-size="16.00">GestionPagos</text>
</g>
<!-- GestionAlquileres&#45;&gt;GestionPagos -->
<g id="edge1" class="edge">
<title>GestionAlquileres&#45;&gt;GestionPagos</title>
<path fill="none" stroke="black" stroke-width="2" d="M346.77,-140.89C357.2,-129.25 369.04,-117.15 381.06,-107.12 392.87,-97.25 406.42,-87.85 419.64,-79.5"/>
<text text-anchor="middle" x="456.56" y="-110.52" font-family="sans-serif" font-size="12.00"> &#160;&#160;&#160;&#160;&#160;&#160;&#160;&#160;&#160;&#160;&#160;&#160;&#160;&#160;&#160;&#160;&#160;&#160;&#160;&#160;&#160;&#160;&#160;&#160;&#160;&#160;&#160;&#160;&#160;&#160;&#160;&#160;&#160;&#160;&#160;&#160;&#160;&#160;&#160;</text>
<polygon fill="white" stroke="transparent" points="396.64,-69.5 396.64,-88.5 412.64,-88.5 412.64,-69.5 396.64,-69.5"/>
<polyline fill="none" stroke="black" points="412.64,-69.5 412.64,-88.5 "/>
<text text-anchor="start" x="399.64" y="-75.9" font-family="sans-serif" font-size="12.00">D</text>
<polygon fill="white" stroke="transparent" points="412.64,-69.5 412.64,-88.5 442.64,-88.5 442.64,-69.5 412.64,-69.5"/>
<polygon fill="none" stroke="black" points="412.64,-69.5 412.64,-88.5 442.64,-88.5 442.64,-69.5 412.64,-69.5"/>
<text text-anchor="start" x="415.64" y="-75.9" font-family="sans-serif" font-size="12.00">ACL</text>
<polygon fill="white" stroke="transparent" points="339.77,-131.89 339.77,-148.89 353.77,-148.89 353.77,-131.89 339.77,-131.89"/>
<text text-anchor="start" x="341.77" y="-137.29" font-family="sans-serif" font-size="12.00">U</text>
</g>
<!-- GestionClientes -->
<g id="node3" class="node">
<title>GestionClientes</title>
<polygon fill="none" stroke="black" stroke-width="2" points="566.06,-143.41 573.69,-142.66 581.35,-142.02 589.02,-141.51 596.66,-141.14 604.25,-140.89 611.75,-140.77 619.14,-140.79 626.39,-140.94 633.47,-141.23 640.37,-141.65 647.04,-142.2 653.49,-142.89 659.68,-143.71 665.59,-144.66 671.22,-145.74 676.54,-146.94 681.55,-148.26 686.23,-149.7 690.57,-151.25 694.57,-152.9 698.23,-154.66 701.53,-156.51 704.49,-158.45 707.09,-160.48 709.34,-162.58 711.25,-164.75 712.82,-166.98 714.05,-169.27 714.95,-171.6 715.53,-173.97 715.8,-176.38 715.77,-178.81 715.44,-181.25 714.83,-183.7 713.95,-186.15 712.81,-188.59 711.42,-191.02 709.79,-193.42 707.93,-195.79 705.85,-198.13 703.57,-200.42 701.08,-202.65 698.41,-204.83 695.55,-206.95 692.52,-208.99 689.32,-210.96 685.96,-212.85 682.45,-214.65 678.79,-216.36 674.99,-217.98 671.04,-219.5 666.96,-220.92 662.75,-222.24 658.41,-223.45 653.95,-224.56 649.36,-225.55 644.65,-226.43 639.82,-227.2 634.88,-227.86 629.82,-228.4 624.66,-228.83 619.39,-229.14 614.03,-229.34 608.57,-229.43 603.02,-229.41 597.39,-229.28 591.69,-229.04 585.92,-228.69 580.1,-228.24 574.23,-227.68 568.33,-227.02 562.41,-226.26 556.49,-225.4 550.57,-224.46 544.68,-223.41 538.84,-222.28 533.05,-221.07 527.35,-219.76 521.74,-218.38 516.26,-216.92 510.92,-215.39 505.74,-213.79 500.74,-212.12 495.96,-210.38 491.4,-208.59 487.1,-206.74 483.07,-204.83 479.33,-202.88 475.91,-200.88 472.82,-198.84 470.08,-196.76 467.72,-194.65 465.74,-192.51 464.17,-190.35 463.01,-188.17 462.27,-185.98 461.98,-183.77 462.13,-181.57 462.73,-179.36 463.78,-177.17 465.28,-174.98 467.25,-172.81 469.66,-170.67 472.51,-168.56 475.81,-166.48 479.53,-164.44 483.67,-162.45 488.2,-160.51 493.13,-158.63 498.41,-156.81 504.04,-155.07 509.99,-153.4 516.24,-151.81 522.77,-150.31 529.54,-148.9 536.52,-147.59 543.7,-146.38 551.03,-145.28 558.5,-144.29 566.06,-143.41"/>
<text text-anchor="middle" x="596.06" y="-182.35" font-family="sans-serif" font-size="16.00">GestionClientes</text>
</g>
<!-- GestionClientes&#45;&gt;GestionPagos -->
<g id="edge2" class="edge">
<title>GestionClientes&#45;&gt;GestionPagos</title>
<path fill="none" stroke="black" stroke-width="2" d="M561.86,-143.65C546.5,-125 528.47,-103.12 513.34,-84.75"/>
<text text-anchor="middle" x="617.56" y="-110.52" font-family="sans-serif" font-size="12.00"> &#160;&#160;&#160;&#160;&#160;&#160;&#160;&#160;&#160;&#160;&#160;&#160;&#160;&#160;&#160;&#160;&#160;&#160;&#160;&#160;&#160;&#160;&#160;&#160;&#160;&#160;&#160;&#160;&#160;&#160;&#160;&#160;&#160;&#160;&#160;&#160;&#160;&#160;&#160;</text>
<polygon fill="white" stroke="transparent" points="490.34,-74.75 490.34,-93.75 506.34,-93.75 506.34,-74.75 490.34,-74.75"/>
<polyline fill="none" stroke="black" points="506.34,-74.75 506.34,-93.75 "/>
<text text-anchor="start" x="493.34" y="-81.15" font-family="sans-serif" font-size="12.00">D</text>
<polygon fill="white" stroke="transparent" points="506.34,-74.75 506.34,-93.75 536.34,-93.75 536.34,-74.75 506.34,-74.75"/>
<polygon fill="none" stroke="black" points="506.34,-74.75 506.34,-93.75 536.34,-93.75 536.34,-74.75 506.34,-74.75"/>
<text text-anchor="start" x="509.34" y="-81.15" font-family="sans-serif" font-size="12.00">ACL</text>
<polygon fill="white" stroke="transparent" points="554.86,-134.65 554.86,-151.65 568.86,-151.65 568.86,-134.65 554.86,-134.65"/>
<text text-anchor="start" x="556.86" y="-140.05" font-family="sans-serif" font-size="12.00">U</text>
</g>
<!-- GestionVehiculos -->
<g id="node4" class="node">
<title>GestionVehiculos</title>
<polygon fill="none" stroke="black" stroke-width="2" points="284.92,-340.25 283.33,-343.07 281.41,-345.85 279.15,-348.57 276.56,-351.23 273.66,-353.82 270.44,-356.31 266.93,-358.72 263.13,-361.02 259.05,-363.2 254.7,-365.27 250.1,-367.21 245.26,-369.01 240.19,-370.67 234.9,-372.18 229.42,-373.55 223.76,-374.76 217.92,-375.82 211.94,-376.72 205.81,-377.46 199.57,-378.04 193.22,-378.47 186.78,-378.74 180.27,-378.86 173.7,-378.82 167.1,-378.64 160.48,-378.32 153.85,-377.85 147.24,-377.26 140.66,-376.53 134.13,-375.69 127.65,-374.73 121.26,-373.65 114.97,-372.48 108.79,-371.21 102.74,-369.86 96.83,-368.42 91.08,-366.91 85.5,-365.33 80.12,-363.69 74.93,-361.99 69.97,-360.25 65.23,-358.46 60.74,-356.64 56.5,-354.78 52.53,-352.9 48.84,-351 45.43,-349.08 42.32,-347.15 39.52,-345.2 37.04,-343.26 34.87,-341.31 33.04,-339.35 31.54,-337.41 30.38,-335.46 29.57,-333.52 29.1,-331.59 28.98,-329.67 29.22,-327.76 29.81,-325.86 30.75,-323.97 32.04,-322.1 33.68,-320.25 35.67,-318.41 37.99,-316.59 40.65,-314.79 43.64,-313.01 46.96,-311.25 50.58,-309.52 54.51,-307.82 58.74,-306.15 63.25,-304.51 68.03,-302.91 73.06,-301.35 78.35,-299.84 83.86,-298.37 89.59,-296.96 95.51,-295.6 101.62,-294.31 107.9,-293.08 114.32,-291.93 120.87,-290.85 127.53,-289.86 134.28,-288.96 141.11,-288.16 147.98,-287.46 154.89,-286.86 161.81,-286.38 168.72,-286.01 175.6,-285.76 182.44,-285.65 189.2,-285.66 195.88,-285.81 202.45,-286.1 208.89,-286.53 215.18,-287.1 221.32,-287.82 227.27,-288.68 233.02,-289.69 238.55,-290.85 243.86,-292.15 248.92,-293.6 253.71,-295.18 258.24,-296.91 262.48,-298.76 266.42,-300.74 270.05,-302.85 273.36,-305.07 276.35,-307.39 279,-309.82 281.31,-312.33 283.27,-314.93 284.88,-317.6 286.14,-320.34 287.04,-323.12 287.58,-325.94 287.76,-328.8 287.58,-331.66 287.04,-334.54 286.16,-337.41 284.92,-340.25"/>
<text text-anchor="middle" x="158.06" y="-327.59" font-family="sans-serif" font-size="16.00">GestionVehiculos</text>
</g>
<!-- GestionVehiculos&#45;&gt;GestionAlquileres -->
<g id="edge5" class="edge">
<title>GestionVehiculos&#45;&gt;GestionAlquileres</title>
<path fill="none" stroke="black" stroke-width="2" d="M150.2,-287.2C150.12,-275.03 152.26,-262.35 159.06,-252.19 171.43,-233.7 190.24,-220.45 210.46,-210.95"/>
<text text-anchor="middle" x="193.56" y="-255.59" font-family="sans-serif" font-size="12.00">Partnership</text>
</g>
<!-- GestionVehiculos&#45;&gt;GestionPagos -->
<g id="edge3" class="edge">
<title>GestionVehiculos&#45;&gt;GestionPagos</title>
<path fill="none" stroke="black" stroke-width="2" d="M84.44,-298.07C58.62,-282.7 32.48,-261.59 18.06,-234.19 -1.83,-196.4 -9.01,-171.14 18.06,-138.12 62.59,-83.8 254.99,-60.73 377.32,-51.41"/>
<text text-anchor="middle" x="93.56" y="-183.05" font-family="sans-serif" font-size="12.00"> &#160;&#160;&#160;&#160;&#160;&#160;&#160;&#160;&#160;&#160;&#160;&#160;&#160;&#160;&#160;&#160;&#160;&#160;&#160;&#160;&#160;&#160;&#160;&#160;&#160;&#160;&#160;&#160;&#160;&#160;&#160;&#160;&#160;&#160;&#160;&#160;&#160;&#160;&#160;</text>
<polygon fill="white" stroke="transparent" points="354.32,-41.41 354.32,-60.41 370.32,-60.41 370.32,-41.41 354.32,-41.41"/>
<polyline fill="none" stroke="black" points="370.32,-41.41 370.32,-60.41 "/>
<text text-anchor="start" x="357.32" y="-47.81" font-family="sans-serif" font-size="12.00">D</text>
<polygon fill="white" stroke="transparent" points="370.32,-41.41 370.32,-60.41 400.32,-60.41 400.32,-41.41 370.32,-41.41"/>
<polygon fill="none" stroke="black" points="370.32,-41.41 370.32,-60.41 400.32,-60.41 400.32,-41.41 370.32,-41.41"/>
<text text-anchor="start" x="373.32" y="-47.81" font-family="sans-serif" font-size="12.00">ACL</text>
<polygon fill="white" stroke="transparent" points="77.44,-289.07 77.44,-306.07 91.44,-306.07 91.44,-289.07 77.44,-289.07"/>
<text text-anchor="start" x="79.44" y="-294.47" font-family="sans-serif" font-size="12.00">U</text>
</g>
<!-- GestionVehiculos&#45;&gt;GestionClientes -->
<g id="edge4" class="edge">
<title>GestionVehiculos&#45;&gt;GestionClientes</title>
<path fill="none" stroke="black" stroke-width="2" d="M206.74,-286.34C223.99,-273.13 244.3,-260.08 265.06,-252.19 343.52,-222.36 370.9,-251.41 453.06,-234.19 473.78,-229.85 495.7,-223.54 515.99,-216.96"/>
<text text-anchor="middle" x="340.56" y="-255.59" font-family="sans-serif" font-size="12.00"> &#160;&#160;&#160;&#160;&#160;&#160;&#160;&#160;&#160;&#160;&#160;&#160;&#160;&#160;&#160;&#160;&#160;&#160;&#160;&#160;&#160;&#160;&#160;&#160;&#160;&#160;&#160;&#160;&#160;&#160;&#160;&#160;&#160;&#160;&#160;&#160;&#160;&#160;&#160;</text>
<polygon fill="white" stroke="transparent" points="496.99,-206.96 496.99,-225.96 512.99,-225.96 512.99,-206.96 496.99,-206.96"/>
<polyline fill="none" stroke="black" points="512.99,-206.96 512.99,-225.96 "/>
<text text-anchor="start" x="499.99" y="-213.36" font-family="sans-serif" font-size="12.00">D</text>
<polygon fill="white" stroke="transparent" points="512.99,-206.96 512.99,-225.96 534.99,-225.96 534.99,-206.96 512.99,-206.96"/>
<polygon fill="none" stroke="black" points="512.99,-206.96 512.99,-225.96 534.99,-225.96 534.99,-206.96 512.99,-206.96"/>
<text text-anchor="start" x="515.99" y="-213.36" font-family="sans-serif" font-size="12.00">CF</text>
<polygon fill="white" stroke="transparent" points="199.74,-277.34 199.74,-294.34 213.74,-294.34 213.74,-277.34 199.74,-277.34"/>
<text text-anchor="start" x="201.74" y="-282.74" font-family="sans-serif" font-size="12.00">U</text>
</g>
<!-- Seguridad -->
<g id="node5" class="node">
<title>Seguridad</title>
<polygon fill="none" stroke="black" stroke-width="2" points="508.29,-337.04 507.45,-334.19 506.86,-331.34 506.53,-328.5 506.45,-325.69 506.63,-322.91 507.08,-320.18 507.79,-317.51 508.76,-314.9 509.99,-312.37 511.48,-309.93 513.22,-307.58 515.21,-305.33 517.44,-303.19 519.92,-301.17 522.62,-299.26 525.55,-297.48 528.7,-295.83 532.05,-294.31 535.6,-292.93 539.33,-291.68 543.24,-290.57 547.31,-289.6 551.54,-288.77 555.9,-288.07 560.38,-287.51 564.97,-287.09 569.66,-286.79 574.43,-286.63 579.26,-286.59 584.15,-286.66 589.07,-286.86 594.01,-287.17 598.95,-287.58 603.89,-288.1 608.8,-288.72 613.67,-289.43 618.48,-290.23 623.22,-291.11 627.88,-292.07 632.45,-293.11 636.9,-294.22 641.22,-295.39 645.42,-296.62 649.46,-297.91 653.35,-299.26 657.06,-300.66 660.6,-302.1 663.95,-303.59 667.1,-305.13 670.05,-306.7 672.79,-308.31 675.31,-309.96 677.61,-311.65 679.68,-313.37 681.52,-315.12 683.12,-316.9 684.49,-318.71 685.62,-320.55 686.5,-322.42 687.14,-324.32 687.55,-326.24 687.71,-328.18 687.63,-330.15 687.32,-332.14 686.77,-334.14 685.98,-336.16 684.97,-338.2 683.74,-340.24 682.28,-342.29 680.61,-344.35 678.73,-346.41 676.65,-348.46 674.37,-350.5 671.89,-352.52 669.23,-354.53 666.4,-356.5 663.39,-358.45 660.22,-360.36 656.9,-362.22 653.43,-364.02 649.82,-365.77 646.09,-367.45 642.23,-369.05 638.26,-370.57 634.19,-372 630.03,-373.34 625.78,-374.56 621.46,-375.68 617.08,-376.67 612.64,-377.54 608.16,-378.28 603.65,-378.88 599.12,-379.33 594.57,-379.64 590.03,-379.79 585.5,-379.79 580.99,-379.63 576.51,-379.31 572.07,-378.82 567.7,-378.17 563.38,-377.36 559.15,-376.39 555,-375.25 550.96,-373.96 547.03,-372.52 543.22,-370.92 539.54,-369.18 536.01,-367.3 532.63,-365.29 529.41,-363.16 526.37,-360.91 523.51,-358.55 520.85,-356.09 518.39,-353.55 516.14,-350.93 514.11,-348.24 512.3,-345.49 510.72,-342.7 509.39,-339.88 508.29,-337.04"/>
<text text-anchor="middle" x="598.06" y="-327.59" font-family="sans-serif" font-size="16.00">Seguridad</text>
</g>
<!-- Seguridad&#45;&gt;GestionAlquileres -->
<g id="edge6" class="edge">
<title>Seguridad&#45;&gt;GestionAlquileres</title>
<path fill="none" stroke="black" stroke-width="2" d="M520.51,-300.51C495.16,-290.07 467.09,-277.8 442.06,-265.19 420.66,-254.41 398.02,-241.5 377.69,-229.32"/>
<text text-anchor="middle" x="517.56" y="-255.59" font-family="sans-serif" font-size="12.00"> &#160;&#160;&#160;&#160;&#160;&#160;&#160;&#160;&#160;&#160;&#160;&#160;&#160;&#160;&#160;&#160;&#160;&#160;&#160;&#160;&#160;&#160;&#160;&#160;&#160;&#160;&#160;&#160;&#160;&#160;&#160;&#160;&#160;&#160;&#160;&#160;&#160;&#160;&#160;</text>
<polygon fill="white" stroke="transparent" points="354.69,-219.32 354.69,-238.32 370.69,-238.32 370.69,-219.32 354.69,-219.32"/>
<polyline fill="none" stroke="black" points="370.69,-219.32 370.69,-238.32 "/>
<text text-anchor="start" x="357.69" y="-225.72" font-family="sans-serif" font-size="12.00">D</text>
<polygon fill="white" stroke="transparent" points="370.69,-219.32 370.69,-238.32 400.69,-238.32 400.69,-219.32 370.69,-219.32"/>
<polygon fill="none" stroke="black" points="370.69,-219.32 370.69,-238.32 400.69,-238.32 400.69,-219.32 370.69,-219.32"/>
<text text-anchor="start" x="373.69" y="-225.72" font-family="sans-serif" font-size="12.00">ACL</text>
<polygon fill="white" stroke="transparent" points="513.51,-291.51 513.51,-308.51 527.51,-308.51 527.51,-291.51 513.51,-291.51"/>
<text text-anchor="start" x="515.51" y="-296.91" font-family="sans-serif" font-size="12.00">U</text>
</g>
<!-- Seguridad&#45;&gt;GestionPagos -->
<g id="edge8" class="edge">
<title>Seguridad&#45;&gt;GestionPagos</title>
<path fill="none" stroke="black" stroke-width="2" d="M681.25,-314.51C708.47,-304.94 735.86,-289.64 752.06,-265.19 768.73,-240.02 868.34,-361.72 739.06,-138.12 709.7,-87.34 648.81,-64.01 593.55,-53.45"/>
<text text-anchor="middle" x="865.56" y="-183.05" font-family="sans-serif" font-size="12.00"> &#160;&#160;&#160;&#160;&#160;&#160;&#160;&#160;&#160;&#160;&#160;&#160;&#160;&#160;&#160;&#160;&#160;&#160;&#160;&#160;&#160;&#160;&#160;&#160;&#160;&#160;&#160;&#160;&#160;&#160;&#160;&#160;&#160;&#160;&#160;&#160;&#160;&#160;&#160;</text>
<polygon fill="white" stroke="transparent" points="570.55,-43.45 570.55,-62.45 586.55,-62.45 586.55,-43.45 570.55,-43.45"/>
<polyline fill="none" stroke="black" points="586.55,-43.45 586.55,-62.45 "/>
<text text-anchor="start" x="573.55" y="-49.85" font-family="sans-serif" font-size="12.00">D</text>
<polygon fill="white" stroke="transparent" points="586.55,-43.45 586.55,-62.45 616.55,-62.45 616.55,-43.45 586.55,-43.45"/>
<polygon fill="none" stroke="black" points="586.55,-43.45 586.55,-62.45 616.55,-62.45 616.55,-43.45 586.55,-43.45"/>
<text text-anchor="start" x="589.55" y="-49.85" font-family="sans-serif" font-size="12.00">ACL</text>
<polygon fill="white" stroke="transparent" points="674.25,-305.51 674.25,-322.51 688.25,-322.51 688.25,-305.51 674.25,-305.51"/>
<text text-anchor="start" x="676.25" y="-310.91" font-family="sans-serif" font-size="12.00">U</text>
</g>
<!-- Seguridad&#45;&gt;GestionClientes -->
<g id="edge7" class="edge">
<title>Seguridad&#45;&gt;GestionClientes</title>
<path fill="none" stroke="black" stroke-width="2" d="M597.46,-287.42C597.2,-269.12 596.9,-247.84 596.65,-229.61"/>
<text text-anchor="middle" x="673.56" y="-255.59" font-family="sans-serif" font-size="12.00"> &#160;&#160;&#160;&#160;&#160;&#160;&#160;&#160;&#160;&#160;&#160;&#160;&#160;&#160;&#160;&#160;&#160;&#160;&#160;&#160;&#160;&#160;&#160;&#160;&#160;&#160;&#160;&#160;&#160;&#160;&#160;&#160;&#160;&#160;&#160;&#160;&#160;&#160;&#160;</text>
<polygon fill="white" stroke="transparent" points="573.65,-219.61 573.65,-238.61 589.65,-238.61 589.65,-219.61 573.65,-219.61"/>
<polyline fill="none" stroke="black" points="589.65,-219.61 589.65,-238.61 "/>
<text text-anchor="start" x="576.65" y="-226.01" font-family="sans-serif" font-size="12.00">D</text>
<polygon fill="white" stroke="transparent" points="589.65,-219.61 589.65,-238.61 619.65,-238.61 619.65,-219.61 589.65,-219.61"/>
<polygon fill="none" stroke="black" points="589.65,-219.61 589.65,-238.61 619.65,-238.61 619.65,-219.61 589.65,-219.61"/>
<text text-anchor="start" x="592.65" y="-226.01" font-family="sans-serif" font-size="12.00">ACL</text>
<polygon fill="white" stroke="transparent" points="590.46,-278.42 590.46,-295.42 604.46,-295.42 604.46,-278.42 590.46,-278.42"/>
<text text-anchor="start" x="592.46" y="-283.82" font-family="sans-serif" font-size="12.00">U</text>
</g>
</g>
</svg>
